# Blender v3.0.1 OBJ File: 'station.blend'
# www.blender.org
mtllib station.mtl
o Cube
v -0.549191 0.556929 0.016868
v -0.537334 -0.810279 -0.211455
v 0.549191 0.556929 0.016868
v 0.537334 -0.810279 -0.211455
v -0.590556 0.615806 0.188785
v -0.537334 -0.810279 0.270050
v 0.590556 0.615806 0.188785
v 0.537334 -0.810279 0.270050
v -0.395203 0.269647 -0.146024
v -0.409449 -0.711029 -0.154156
v -0.557723 -0.745845 -0.220590
v 0.557723 -0.745845 0.279185
v 0.409449 -0.711029 0.212751
v 0.395203 0.268679 0.175970
v 0.395203 0.269647 -0.146024
v 0.409449 -0.711029 -0.154156
v 0.557723 -0.745845 -0.220590
v -0.395203 0.268679 0.175970
v -0.409449 -0.711029 0.212751
v -0.557723 -0.745845 0.279185
v -0.532592 0.372381 -0.272562
v -0.550461 0.270811 -0.333481
v 0.550462 0.478308 0.237390
v 0.567743 0.540221 0.223216
v 0.532592 0.372381 -0.272562
v 0.550461 0.270811 -0.333481
v -0.550462 0.478308 0.237390
v -0.567744 0.540221 0.223216
v -0.590556 0.591629 0.071289
v 0.590556 0.591629 0.071289
v -0.567715 0.337681 -0.326983
v 0.567715 0.337681 -0.326983
v -0.549191 0.549977 0.021301
v 0.549191 0.549977 0.021301
v -0.532592 0.365429 -0.268129
v 0.532592 0.365429 -0.268129
vt 0.625000 0.500000
vt 0.875000 0.500000
vt 0.875000 0.750000
vt 0.625000 0.750000
vt 0.525000 0.750000
vt 0.571898 0.750000
vt 0.571898 1.000000
vt 0.525000 1.000000
vt 0.125000 0.500000
vt 0.375000 0.500000
vt 0.375000 0.750000
vt 0.125000 0.750000
vt 0.525000 0.250000
vt 0.571898 0.250000
vt 0.571898 0.500000
vt 0.525000 0.500000
vt 0.375000 0.250000
vt 0.425000 0.250000
vt 0.425000 0.500000
vt 0.475000 0.250000
vt 0.475000 0.500000
vt 0.578874 0.000000
vt 0.625000 0.000000
vt 0.625000 0.250000
vt 0.578874 0.250000
vt 0.425000 0.750000
vt 0.475000 0.750000
vt 0.618689 0.741817
vt 0.585126 0.741688
vt 0.585126 0.741688
vt 0.618689 0.741817
vt 0.375000 0.000000
vt 0.425000 0.000000
vt 0.475000 0.000000
vt 0.525000 0.000000
vt 0.578816 0.750000
vt 0.625000 1.000000
vt 0.578874 1.000000
vt 0.425000 1.000000
vt 0.375000 1.000000
vt 0.475000 1.000000
vt 0.571898 0.000000
vt 0.578816 0.500000
vt 0.618689 0.508183
vt 0.585127 0.508312
vt 0.585127 0.508312
vt 0.618689 0.508183
vn -0.0000 0.9795 -0.2015
vn 0.6015 -0.7784 0.1800
vn 0.0000 -1.0000 -0.0000
vn -0.6015 -0.7784 0.1800
vn -0.0000 -1.0000 -0.0062
vn -0.9534 -0.3017 -0.0000
vn -0.2286 0.9735 0.0000
vn -0.9999 0.0145 0.0000
vn 0.0000 0.4145 0.9100
vn -0.0000 -0.1404 -0.9901
vn -0.0000 0.8857 -0.4642
vn -0.0000 0.0083 -1.0000
vn -0.9988 0.0260 0.0407
vn 0.0000 -0.1404 0.9901
vn 0.0000 0.8857 0.4642
vn 0.0000 0.0375 0.9993
vn 0.9737 -0.2157 0.0732
vn 0.9534 -0.3017 -0.0000
vn 0.2286 0.9735 0.0000
vn 0.9999 0.0145 0.0000
vn 0.0000 -0.2812 0.9597
vn -0.9631 -0.2528 0.0924
vn -0.0000 0.0967 -0.9953
vn 0.0000 0.2232 0.9748
vn 0.9631 -0.2528 0.0924
vn -0.9737 -0.2157 0.0732
vn -0.0000 0.8432 -0.5376
vn 0.0000 0.5376 0.8432
vn 0.9988 0.0260 0.0407
vn -0.0000 -0.5376 -0.8432
usemtl Material
s off
f 29/1/1 5/2/1 7/3/1 30/4/1
f 15/5/2 26/6/2 23/7/2 14/8/2
f 6/9/3 2/10/3 4/11/3 8/12/3
f 18/13/4 27/14/4 22/15/4 9/16/4
f 9/16/5 22/15/5 26/6/5 15/5/5
f 6/17/6 20/18/6 11/19/6 2/10/6
f 20/18/7 19/20/7 10/21/7 11/19/7
f 19/20/8 18/13/8 9/16/8 10/21/8
f 24/22/9 7/23/9 5/24/9 28/25/9
f 2/10/10 11/19/10 17/26/10 4/11/10
f 11/19/11 10/21/11 16/27/11 17/26/11
f 10/21/12 9/16/12 15/5/12 16/27/12
f 3/28/13 25/29/13 36/30/13 34/31/13
f 8/32/14 12/33/14 20/18/14 6/17/14
f 12/33/15 13/34/15 19/20/15 20/18/15
f 13/34/16 14/35/16 18/13/16 19/20/16
f 32/36/17 30/4/17 7/37/17 24/38/17
f 4/11/18 17/26/18 12/39/18 8/40/18
f 17/26/19 16/27/19 13/41/19 12/39/19
f 16/27/20 15/5/20 14/8/20 13/41/20
f 14/35/21 23/42/21 27/14/21 18/13/21
f 28/25/22 31/43/22 22/15/22 27/14/22
f 31/43/23 32/36/23 26/6/23 22/15/23
f 24/22/24 28/25/24 27/14/24 23/42/24
f 32/36/25 24/38/25 23/7/25 26/6/25
f 28/25/26 5/24/26 29/1/26 31/43/26
f 3/28/27 1/44/27 29/1/27 30/4/27
f 21/45/27 25/29/27 32/36/27 31/43/27
f 1/44/27 21/45/27 31/43/27 29/1/27
f 25/29/27 3/28/27 30/4/27 32/36/27
f 35/46/27 33/47/27 34/31/27 36/30/27
f 25/29/28 21/45/28 35/46/28 36/30/28
f 21/45/29 1/44/29 33/47/29 35/46/29
f 1/44/30 3/28/30 34/31/30 33/47/30
